<svg width="4.27vh" height="4.27vh" viewBox="0 0 36 36" fill="none" xmlns="http://www.w3.org/2000/svg">
<path fill-rule="evenodd" clip-rule="evenodd" d="M31.5 18C31.5 25.4558 25.4558 31.5 18 31.5C10.5442 31.5 4.5 25.4558 4.5 18C4.5 10.5442 10.5442 4.5 18 4.5C25.4558 4.5 31.5 10.5442 31.5 18ZM23.2071 12.7929C23.5976 13.1834 23.5976 13.8166 23.2071 14.2071L19.4142 18L23.2071 21.7929C23.5976 22.1834 23.5976 22.8166 23.2071 23.2071C22.8166 23.5976 22.1834 23.5976 21.7929 23.2071L18 19.4142L14.2071 23.2071C13.8166 23.5976 13.1834 23.5976 12.7929 23.2071C12.4024 22.8166 12.4024 22.1834 12.7929 21.7929L16.5858 18L12.7929 14.2071C12.4024 13.8166 12.4024 13.1834 12.7929 12.7929C13.1834 12.4024 13.8166 12.4024 14.2071 12.7929L18 16.5858L21.7929 12.7929C22.1834 12.4024 22.8166 12.4024 23.2071 12.7929Z" fill="#9063FF"/>
</svg>
