<svg width="2.84vh" height="2.84vh" viewBox="0 0 24 24" fill="none" xmlns="http://www.w3.org/2000/svg">
<path fill-rule="evenodd" clip-rule="evenodd" d="M6.5 13.4142V15C6.5 15.5523 6.94772 16 7.5 16H9.08579C9.351 16 9.60536 15.8946 9.79289 15.7071L17.7929 7.70708C18.1834 7.31655 18.1834 6.68339 17.7929 6.29286L16.2071 4.70708C15.8166 4.31655 15.1834 4.31655 14.7929 4.70708L6.79289 12.7071C6.60536 12.8946 6.5 13.149 6.5 13.4142ZM4.5 19C3.94772 19 3.5 19.4477 3.5 20C3.5 20.5523 3.94772 21 4.5 21H20.5C21.0523 21 21.5 20.5523 21.5 20C21.5 19.4477 21.0523 19 20.5 19H4.5Z" fill="#232323"/>
</svg>
