<svg width="3.32vh" height="3.32vh" viewBox="0 0 28 28" fill="none" xmlns="http://www.w3.org/2000/svg">
<path fill-rule="evenodd" clip-rule="evenodd" d="M5.6665 10.783C5.6665 8.60161 7.43487 6.83325 9.61625 6.83325C10.6638 6.83325 11.6684 7.24938 12.4091 7.99011L13.2377 8.81869C13.6586 9.23959 14.341 9.23959 14.7619 8.81869L15.5905 7.99011C16.3313 7.24938 17.3359 6.83325 18.3834 6.83325C20.5648 6.83325 22.3332 8.60161 22.3332 10.783C22.3332 11.8305 21.917 12.8352 21.1763 13.5759L14.1147 20.6375C14.0512 20.701 13.9484 20.701 13.885 20.6375L6.82336 13.5759C6.08264 12.8352 5.6665 11.8305 5.6665 10.783ZM9.61625 4.83325C6.3303 4.83325 3.6665 7.49704 3.6665 10.783C3.6665 12.361 4.29335 13.8743 5.40914 14.9901L12.4708 22.0518C13.3153 22.8962 14.6844 22.8962 15.5289 22.0518L22.5905 14.9901C23.7063 13.8743 24.3332 12.361 24.3332 10.783C24.3332 7.49704 21.6694 4.83325 18.3834 4.83325C16.8055 4.83325 15.2921 5.4601 14.1763 6.57589L13.9998 6.75237L13.8234 6.57589C12.7076 5.4601 11.1942 4.83325 9.61625 4.83325Z" fill="#9063FF"/>
</svg>
