<svg width="3.32vh" height="3.32vh" viewBox="0 0 28 28" fill="none" xmlns="http://www.w3.org/2000/svg">
<path fill-rule="evenodd" clip-rule="evenodd" d="M13.1779 21.3447L6.11625 14.283C5.18799 13.3547 4.6665 12.0958 4.6665 10.783C4.6665 8.04933 6.88258 5.83325 9.61625 5.83325C10.929 5.83325 12.188 6.35474 13.1163 7.283L13.9448 8.11158C13.9752 8.14196 14.0245 8.14196 14.0548 8.11158L14.8834 7.283C15.8117 6.35474 17.0707 5.83325 18.3834 5.83325C21.1171 5.83325 23.3332 8.04933 23.3332 10.783C23.3332 12.0958 22.8117 13.3547 21.8834 14.283L14.8218 21.3447C14.3678 21.7986 13.6318 21.7986 13.1779 21.3447Z" fill="#9063FF"/>
</svg>
