<svg width="2.84vh" height="2.84vh" viewBox="0 0 28 28" fill="none" xmlns="http://www.w3.org/2000/svg">
<path fill-rule="evenodd" clip-rule="evenodd" d="M5.66675 10.7831C5.66675 8.60174 7.43511 6.83337 9.6165 6.83337C10.664 6.83337 11.6687 7.24951 12.4094 7.99023L13.238 8.81881C13.6589 9.23971 14.3413 9.23971 14.7622 8.81881L15.5908 7.99023C16.3315 7.24951 17.3361 6.83337 18.3837 6.83337C20.5651 6.83337 22.3334 8.60174 22.3334 10.7831C22.3334 11.8307 21.9173 12.8353 21.1766 13.576L14.1149 20.6377C14.0515 20.7011 13.9487 20.7011 13.8853 20.6377L6.8236 13.576C6.08288 12.8353 5.66675 11.8307 5.66675 10.7831ZM9.6165 4.83337C6.33054 4.83337 3.66675 7.49717 3.66675 10.7831C3.66675 12.3611 4.29359 13.8744 5.40939 14.9902L12.471 22.0519C13.3155 22.8963 14.6847 22.8963 15.5291 22.0519L22.5908 14.9902C23.7066 13.8744 24.3334 12.3611 24.3334 10.7831C24.3334 7.49717 21.6696 4.83337 18.3837 4.83337C16.8057 4.83337 15.2924 5.46022 14.1766 6.57601L14.0001 6.75249L13.8236 6.57601C12.7078 5.46022 11.1945 4.83337 9.6165 4.83337Z" fill="#9063FF"/>
</svg>
