<svg width="3.79vh" height="3.79vh" viewBox="0 0 32 32" fill="none" xmlns="http://www.w3.org/2000/svg">
<path d="M31.3847 0.923096H1.84619V30.4616H31.3847V0.923096Z" fill="white" fill-opacity="0.00"/>
<path d="M31.3847 0.923096H1.84619V30.4616H31.3847V0.923096Z" fill="white" fill-opacity="0.00"/>
<path d="M27.5565 13.604C27.712 12.5604 27.661 11.4921 27.4034 10.4648C27.0632 9.10776 26.3624 7.82259 25.3011 6.76136C24.2399 5.70014 22.9547 4.99938 21.5978 4.65911C20.5705 4.40153 19.5021 4.35051 18.4585 4.50607" stroke-width="1.84615" stroke-linecap="round" stroke-linejoin="round"/>
<path d="M22.886 13.1099C23.0527 11.992 22.7057 10.8123 21.8452 9.95171C20.9845 9.09116 19.8049 8.74414 18.687 8.91079" stroke-width="1.84615" stroke-linecap="round" stroke-linejoin="round"/>
<path d="M10.6927 6.33496C11.1397 6.33496 11.5517 6.57747 11.7687 6.96836L13.2742 9.68023C13.4713 10.0353 13.4806 10.4648 13.2989 10.8281L11.8486 13.7287C11.8486 13.7287 12.2689 15.8897 14.0279 17.6487C15.787 19.4077 17.9406 19.8207 17.9406 19.8207L20.8408 18.3706C21.2044 18.1888 21.6341 18.1983 21.9893 18.3957L24.7089 19.9077C25.0995 20.1249 25.3416 20.5366 25.3416 20.9834V24.1056C25.3416 25.6956 23.8648 26.8439 22.3583 26.3356C19.2642 25.2916 14.4613 23.3037 11.4171 20.2595C8.37284 17.2153 6.38503 12.4124 5.34102 9.31833C4.8327 7.8118 5.98106 6.33496 7.571 6.33496H10.6927Z" stroke="#232323" stroke-width="1.84615" stroke-linejoin="round"/>
</svg>
