<svg width="2.84vh" height="2.84vh" viewBox="0 0 25 24" fill="none" xmlns="http://www.w3.org/2000/svg">
<path fill-rule="evenodd" clip-rule="evenodd" d="M15.3958 19.7604C15.4639 19.5901 15.5776 19.4418 15.7243 19.3318L17.0808 18.3144C17.3433 18.1175 17.6857 18.0619 17.997 18.1657L19.6772 18.7257C20.1493 18.8831 20.6653 18.6694 20.8878 18.2243L22.1384 15.7231C22.3493 15.3013 22.2369 14.7896 21.8687 14.495L20.3753 13.3002C20.1381 13.1105 20 12.8232 20 12.5194V11.4806C20 11.1768 20.1381 10.8895 20.3753 10.6998L21.8687 9.50501C22.2369 9.21045 22.3493 8.69869 22.1384 8.27693L20.8878 5.77573C20.6653 5.33062 20.1493 5.11689 19.6772 5.27426L17.8929 5.86901C17.6413 5.95288 17.3667 5.93337 17.1295 5.81476L15.8704 5.18524C15.6332 5.06663 15.4528 4.85865 15.369 4.60704L14.7279 2.68377C14.5918 2.27543 14.2096 2 13.7792 2H11.2207C10.7903 2 10.4082 2.27543 10.272 2.68377L9.63095 4.60704C9.54708 4.85865 9.3667 5.06663 9.12948 5.18524L7.87045 5.81476C7.63323 5.93337 7.35861 5.95288 7.107 5.86901L5.32275 5.27426C4.85064 5.11689 4.33465 5.33062 4.1121 5.77573L2.8615 8.27693C2.65062 8.69869 2.76302 9.21045 3.13123 9.50501L4.62466 10.6998C4.86187 10.8895 4.99996 11.1768 4.99996 11.4806V12.9338C4.99996 13.2851 4.81566 13.6106 4.51446 13.7913L3.29403 14.5236C2.84596 14.7924 2.68041 15.3609 2.9141 15.8283L4.1121 18.2243C4.33465 18.6694 4.85064 18.8831 5.32275 18.7257L7.0029 18.1657C7.3142 18.0619 7.65661 18.1175 7.91912 18.3144L9.27563 19.3318C9.42236 19.4418 9.53599 19.5901 9.60411 19.7604L10.2485 21.3714C10.4004 21.751 10.7681 22 11.177 22H13.8229C14.2318 22 14.5995 21.751 14.7514 21.3714L15.3958 19.7604ZM15.5 12C15.5 13.6569 14.1568 15 12.5 15C10.8431 15 9.49996 13.6569 9.49996 12C9.49996 10.3431 10.8431 9 12.5 9C14.1568 9 15.5 10.3431 15.5 12Z" fill="#232323"/>
<path d="M15.7243 19.3318L15.4243 18.9318L15.7243 19.3318ZM15.3958 19.7604L14.9316 19.5747L15.3958 19.7604ZM17.0808 18.3144L16.7808 17.9144L16.7808 17.9144L17.0808 18.3144ZM17.997 18.1657L18.1551 17.6913L18.1551 17.6913L17.997 18.1657ZM19.6772 18.7257L19.8353 18.2514H19.8353L19.6772 18.7257ZM20.8878 18.2243L21.335 18.4479V18.4479L20.8878 18.2243ZM22.1384 15.7231L21.6912 15.4995L22.1384 15.7231ZM21.8687 14.495L22.181 14.1046L21.8687 14.495ZM20.3753 13.3002L20.0629 13.6907L20.3753 13.3002ZM20.3753 10.6998L20.0629 10.3093L20.3753 10.6998ZM21.8687 9.50501L22.181 9.89545V9.89545L21.8687 9.50501ZM22.1384 8.27693L21.6912 8.50054V8.50054L22.1384 8.27693ZM20.8878 5.77573L21.335 5.55213L21.335 5.55212L20.8878 5.77573ZM19.6772 5.27426L19.5191 4.79992L19.6772 5.27426ZM17.8929 5.86901L17.7348 5.39467H17.7348L17.8929 5.86901ZM15.369 4.60704L14.8946 4.76516V4.76516L15.369 4.60704ZM14.7279 2.68377L14.2535 2.84189L14.7279 2.68377ZM10.272 2.68377L10.7464 2.84189V2.84189L10.272 2.68377ZM9.63095 4.60704L9.15661 4.44893L9.15661 4.44893L9.63095 4.60704ZM7.107 5.86901L6.94889 6.34336L7.107 5.86901ZM5.32275 5.27426L5.48087 4.79992H5.48086L5.32275 5.27426ZM4.1121 5.77573L3.66488 5.55213H3.66488L4.1121 5.77573ZM2.8615 8.27693L2.41428 8.05332L2.8615 8.27693ZM3.13123 9.50501L3.44358 9.11458L3.44358 9.11458L3.13123 9.50501ZM4.62466 10.6998L4.93701 10.3093H4.937L4.62466 10.6998ZM4.51446 13.7913L4.77171 14.22H4.77171L4.51446 13.7913ZM3.29403 14.5236L3.03678 14.0948H3.03678L3.29403 14.5236ZM2.9141 15.8283L2.46688 16.0519H2.46688L2.9141 15.8283ZM4.1121 18.2243L4.55931 18.0007L4.1121 18.2243ZM5.32275 18.7257L5.16464 18.2514H5.16464L5.32275 18.7257ZM7.0029 18.1657L6.84478 17.6913L6.84478 17.6913L7.0029 18.1657ZM7.91912 18.3144L8.21912 17.9144L8.21912 17.9144L7.91912 18.3144ZM9.27563 19.3318L9.57563 18.9318L9.27563 19.3318ZM9.60411 19.7604L9.13987 19.9461L9.13987 19.9461L9.60411 19.7604ZM10.2485 21.3714L9.78428 21.5571L10.2485 21.3714ZM14.7514 21.3714L15.2156 21.5571L14.7514 21.3714ZM15.4243 18.9318C15.2042 19.0968 15.0338 19.3192 14.9316 19.5747L15.8601 19.9461C15.8941 19.8609 15.9509 19.7868 16.0243 19.7318L15.4243 18.9318ZM16.7808 17.9144L15.4243 18.9318L16.0243 19.7318L17.3808 18.7144L16.7808 17.9144ZM18.1551 17.6913C17.6882 17.5357 17.1746 17.619 16.7808 17.9144L17.3808 18.7144C17.5121 18.6159 17.6833 18.5881 17.8389 18.64L18.1551 17.6913ZM19.8353 18.2514L18.1551 17.6913L17.8389 18.64L19.5191 19.2001L19.8353 18.2514ZM20.4406 18.0007C20.3293 18.2232 20.0713 18.3301 19.8353 18.2514L19.5191 19.2001C20.2272 19.4361 21.0012 19.1155 21.335 18.4479L20.4406 18.0007ZM21.6912 15.4995L20.4406 18.0007L21.335 18.4479L22.5856 15.9467L21.6912 15.4995ZM21.5563 14.8854C21.7405 15.0327 21.7967 15.2886 21.6912 15.4995L22.5856 15.9467C22.902 15.314 22.7334 14.5464 22.181 14.1046L21.5563 14.8854ZM20.0629 13.6907L21.5563 14.8854L22.181 14.1046L20.6876 12.9098L20.0629 13.6907ZM19.5 12.5194C19.5 12.9751 19.7071 13.406 20.0629 13.6907L20.6876 12.9098C20.569 12.8149 20.5 12.6713 20.5 12.5194H19.5ZM19.5 11.4806V12.5194H20.5V11.4806H19.5ZM20.0629 10.3093C19.7071 10.594 19.5 11.0249 19.5 11.4806H20.5C20.5 11.3287 20.569 11.1851 20.6876 11.0902L20.0629 10.3093ZM21.5563 9.11458L20.0629 10.3093L20.6876 11.0902L22.181 9.89545L21.5563 9.11458ZM21.6912 8.50054C21.7967 8.71142 21.7405 8.9673 21.5563 9.11458L22.181 9.89545C22.7334 9.4536 22.902 8.68596 22.5856 8.05332L21.6912 8.50054ZM20.4406 5.99934L21.6912 8.50054L22.5856 8.05332L21.335 5.55213L20.4406 5.99934ZM19.8353 5.7486C20.0713 5.66992 20.3293 5.77678 20.4406 5.99934L21.335 5.55212C21.0012 4.88446 20.2272 4.56386 19.5191 4.79992L19.8353 5.7486ZM18.051 6.34336L19.8353 5.7486L19.5191 4.79992L17.7348 5.39467L18.051 6.34336ZM16.9059 6.26197C17.2617 6.43988 17.6736 6.46916 18.051 6.34336L17.7348 5.39467C17.609 5.43661 17.4717 5.42685 17.3531 5.36754L16.9059 6.26197ZM15.6468 5.63246L16.9059 6.26197L17.3531 5.36754L16.0941 4.73803L15.6468 5.63246ZM14.8946 4.76516C15.0204 5.14257 15.291 5.45454 15.6468 5.63246L16.0941 4.73803C15.9754 4.67872 15.8853 4.57473 15.8433 4.44893L14.8946 4.76516ZM14.2535 2.84189L14.8946 4.76516L15.8433 4.44893L15.2022 2.52566L14.2535 2.84189ZM13.7792 2.5C13.9944 2.5 14.1855 2.63771 14.2535 2.84189L15.2022 2.52566C14.9981 1.91315 14.4248 1.5 13.7792 1.5V2.5ZM11.2207 2.5H13.7792V1.5H11.2207V2.5ZM10.7464 2.84189C10.8144 2.63772 11.0055 2.5 11.2207 2.5V1.5C10.5751 1.5 10.0019 1.91315 9.7977 2.52566L10.7464 2.84189ZM10.1053 4.76516L10.7464 2.84189L9.7977 2.52566L9.15661 4.44893L10.1053 4.76516ZM9.35309 5.63246C9.70891 5.45454 9.97949 5.14257 10.1053 4.76516L9.15661 4.44893C9.11467 4.57473 9.02448 4.67872 8.90587 4.73803L9.35309 5.63246ZM8.09405 6.26197L9.35309 5.63246L8.90587 4.73803L7.64684 5.36754L8.09405 6.26197ZM6.94889 6.34336C7.3263 6.46916 7.73823 6.43988 8.09405 6.26197L7.64684 5.36754C7.52823 5.42685 7.39092 5.43661 7.26512 5.39467L6.94889 6.34336ZM5.16464 5.7486L6.94889 6.34336L7.26512 5.39467L5.48087 4.79992L5.16464 5.7486ZM4.55931 5.99934C4.67059 5.77678 4.92858 5.66992 5.16464 5.7486L5.48086 4.79992C4.7727 4.56387 3.99872 4.88446 3.66488 5.55213L4.55931 5.99934ZM3.30871 8.50054L4.55931 5.99934L3.66488 5.55213L2.41428 8.05332L3.30871 8.50054ZM3.44358 9.11458C3.25947 8.9673 3.20327 8.71142 3.30871 8.50054L2.41428 8.05332C2.09797 8.68596 2.26657 9.4536 2.81888 9.89545L3.44358 9.11458ZM4.937 10.3093L3.44358 9.11458L2.81888 9.89545L4.31231 11.0902L4.937 10.3093ZM5.49996 11.4806C5.49996 11.0249 5.29283 10.594 4.93701 10.3093L4.31231 11.0902C4.43092 11.1851 4.49996 11.3287 4.49996 11.4806H5.49996ZM5.49996 12.9338V11.4806H4.49996V12.9338H5.49996ZM4.77171 14.22C5.22351 13.949 5.49996 13.4607 5.49996 12.9338H4.49996C4.49996 13.1094 4.40781 13.2722 4.25721 13.3626L4.77171 14.22ZM3.55128 14.9523L4.77171 14.22L4.25721 13.3626L3.03678 14.0948L3.55128 14.9523ZM3.36131 15.6047C3.24447 15.371 3.32724 15.0867 3.55128 14.9523L3.03678 14.0948C2.36467 14.4981 2.11635 15.3508 2.46688 16.0519L3.36131 15.6047ZM4.55931 18.0007L3.36131 15.6047L2.46688 16.0519L3.66488 18.4479L4.55931 18.0007ZM5.16464 18.2514C4.92858 18.3301 4.67059 18.2232 4.55931 18.0007L3.66488 18.4479C3.99872 19.1155 4.7727 19.4361 5.48087 19.2001L5.16464 18.2514ZM6.84478 17.6913L5.16464 18.2514L5.48087 19.2001L7.16101 18.64L6.84478 17.6913ZM8.21912 17.9144C7.82535 17.619 7.31174 17.5357 6.84478 17.6913L7.16101 18.64C7.31666 18.5881 7.48787 18.6159 7.61913 18.7144L8.21912 17.9144ZM9.57563 18.9318L8.21912 17.9144L7.61912 18.7144L8.97563 19.7318L9.57563 18.9318ZM10.0683 19.5747C9.96617 19.3192 9.79572 19.0968 9.57563 18.9318L8.97563 19.7318C9.04899 19.7868 9.10581 19.8609 9.13987 19.9461L10.0683 19.5747ZM10.7128 21.1857L10.0683 19.5747L9.13987 19.9461L9.78428 21.5571L10.7128 21.1857ZM11.177 21.5C10.9725 21.5 10.7887 21.3755 10.7128 21.1857L9.78428 21.5571C10.0121 22.1266 10.5636 22.5 11.177 22.5V21.5ZM13.8229 21.5H11.177V22.5H13.8229V21.5ZM14.2872 21.1857C14.2112 21.3755 14.0274 21.5 13.8229 21.5V22.5C14.4363 22.5 14.9878 22.1266 15.2156 21.5571L14.2872 21.1857ZM14.9316 19.5747L14.2872 21.1857L15.2156 21.5571L15.8601 19.9461L14.9316 19.5747ZM12.5 15.5C14.433 15.5 16 13.933 16 12H15C15 13.3807 13.8807 14.5 12.5 14.5V15.5ZM8.99996 12C8.99996 13.933 10.567 15.5 12.5 15.5V14.5C11.1193 14.5 9.99996 13.3807 9.99996 12H8.99996ZM12.5 8.5C10.567 8.5 8.99996 10.067 8.99996 12H9.99996C9.99996 10.6193 11.1193 9.5 12.5 9.5V8.5ZM16 12C16 10.067 14.433 8.5 12.5 8.5V9.5C13.8807 9.5 15 10.6193 15 12H16Z" fill="#232323"/>
</svg>
