<svg width="3.79vh" height="3.79vh" viewBox="0 0 32 32" fill="none" xmlns="http://www.w3.org/2000/svg">
<path d="M27.6129 4.87262C27.6129 4.87262 30.2031 3.86262 29.9872 6.31548C29.9153 7.32549 29.2677 10.8605 28.7641 14.6841L27.0373 26.0106C27.0373 26.0106 26.8934 27.6698 25.5983 27.9584C24.3031 28.247 22.3605 26.9484 22.0007 26.6598C21.7129 26.4434 16.6045 23.197 14.8057 21.6098C14.3021 21.177 13.7265 20.3112 14.8777 19.3012L22.4325 12.087C23.2959 11.2212 24.1593 9.20123 20.5617 11.6541L10.4887 18.5077C10.4887 18.5077 9.33753 19.2291 7.17907 18.5798L2.50228 17.137C2.50228 17.137 0.775474 16.0548 3.72543 14.9726C10.9205 11.5819 19.7703 8.11903 27.6129 4.87262Z" fill="#232323"/>
</svg>
