<svg width="3.79vh" height="3.79vh" viewBox="0 0 32 32" fill="none" xmlns="http://www.w3.org/2000/svg">
  <path fill-rule="evenodd" clip-rule="evenodd"
    d="M16 28.5C12.6451 28.5 10.4022 28.4955 8.69806 28.3158C7.05626 28.1428 6.32224 27.8393 5.84533 27.5053C5.31978 27.1373 4.86266 26.6802 4.49466 26.1547C4.16073 25.6778 3.85723 24.9437 3.68417 23.3019C3.50455 21.5978 3.5 19.3549 3.5 16C3.5 12.6451 3.50455 10.4022 3.68417 8.69806C3.85723 7.05626 4.16073 6.32224 4.49466 5.84533C4.86266 5.31978 5.31978 4.86266 5.84533 4.49466C6.32224 4.16073 7.05626 3.85723 8.69806 3.68417C10.4022 3.50455 12.6451 3.5 16 3.5C19.3549 3.5 21.5978 3.50455 23.3019 3.68417C24.9437 3.85723 25.6778 4.16073 26.1547 4.49466C26.6802 4.86266 27.1373 5.31978 27.5053 5.84533C27.8393 6.32224 28.1428 7.05626 28.3158 8.69806C28.4955 10.4022 28.5 12.6451 28.5 16C28.5 19.3549 28.4955 21.5978 28.3158 23.3019C28.1428 24.9437 27.8393 25.6778 27.5053 26.1547C27.1373 26.6802 26.6802 27.1373 26.1547 27.5053C25.6778 27.8393 24.9437 28.1428 23.3019 28.3158C21.5978 28.4955 19.3549 28.5 16 28.5ZM0 16C0 9.44154 0 6.16231 1.62763 3.83781C2.22981 2.97781 2.97781 2.22981 3.83781 1.62763C6.16231 0 9.44154 0 16 0C22.5585 0 25.8377 0 28.1622 1.62763C29.0222 2.22981 29.7702 2.97781 30.3724 3.83781C32 6.16231 32 9.44154 32 16C32 22.5585 32 25.8377 30.3724 28.1622C29.7702 29.0222 29.0222 29.7702 28.1622 30.3724C25.8377 32 22.5585 32 16 32C9.44154 32 6.16231 32 3.83781 30.3724C2.97781 29.7702 2.22981 29.0222 1.62763 28.1622C0 25.8377 0 22.5585 0 16ZM14.179 10.6667V18.7225C12.8106 18.2267 9.68279 16.4916 9.4873 10.6667H6.22921C6.03372 16.8635 9.94344 22.6884 17.3067 22.1927V17.9789C18.4797 18.0615 21.1383 19.0199 22.3894 22.1927H25.7778C25.7778 20.3337 23.041 17.0494 20.8255 16.3677C22.1504 15.7067 24.7352 13.5172 25.1262 10.6667H21.8681C21.3902 12.03 19.809 14.8309 17.3067 15.1284V10.6667H14.179Z"
    fill="#232323" />
</svg>