<svg width="3.79vh" height="3.79vh" viewBox="0 0 32 32" fill="none" xmlns="http://www.w3.org/2000/svg">
<path fill-rule="evenodd" clip-rule="evenodd" d="M14.6504 4.40153C15.1707 3.8514 15.627 3.66663 15.9998 3.66663C16.3727 3.66663 16.829 3.8514 17.3493 4.40153C17.8715 4.95378 18.3879 5.80656 18.8426 6.94326C19.6645 8.99814 20.2207 11.8196 20.318 15H11.6817C11.7789 11.8196 12.3351 8.99814 13.1571 6.94326C13.6118 5.80656 14.1282 4.95378 14.6504 4.40153ZM9.68086 15C9.77838 11.6141 10.368 8.53081 11.3001 6.20048C11.587 5.4834 11.9124 4.82199 12.2763 4.23867C7.58947 5.72111 4.11346 9.9276 3.70646 15L9.68086 15ZM3.70646 17L9.68086 17C9.77838 20.3858 10.368 23.4691 11.3001 25.7994C11.587 26.5165 11.9124 27.1779 12.2763 27.7613C7.58947 26.2788 4.11346 22.0723 3.70646 17ZM11.6817 17H20.318C20.2207 20.1803 19.6645 23.0018 18.8426 25.0567C18.3879 26.1934 17.8715 27.0461 17.3493 27.5984C16.829 28.1485 16.3727 28.3333 15.9998 28.3333C15.627 28.3333 15.1707 28.1485 14.6504 27.5984C14.1282 27.0461 13.6118 26.1934 13.1571 25.0567C12.3351 23.0018 11.7789 20.1803 11.6817 17ZM22.3188 17C22.2213 20.3858 21.6317 23.4691 20.6996 25.7994C20.4127 26.5165 20.0872 27.1779 19.7234 27.7613C24.4102 26.2788 27.8862 22.0723 28.2932 17L22.3188 17ZM28.2932 15C27.8862 9.9276 24.4102 5.72111 19.7234 4.23867C20.0872 4.82199 20.4127 5.4834 20.6996 6.20048C21.6317 8.53081 22.2213 11.6141 22.3188 15L28.2932 15ZM30.3332 16C30.3332 23.916 23.9159 30.3333 15.9998 30.3333C8.08376 30.3333 1.6665 23.916 1.6665 16C1.6665 8.08388 8.08376 1.66663 15.9998 1.66663C23.9159 1.66663 30.3332 8.08388 30.3332 16Z" fill="#232323"/>
</svg>
